<svg id="e4lCxYLurU61" xmlns="http://www.w3.org/2000/svg" xmlns:xlink="http://www.w3.org/1999/xlink" viewBox="0 0 300 300" shape-rendering="geometricPrecision" text-rendering="geometricPrecision" project-id="f787daf9ccbc48e8a315c34eb3eb2d59" export-id="01d64ab006124dde8e440605bfb6d125" cached="false"><defs><filter id="e4lCxYLurU62-filter" x="-150%" y="-150%" width="400%" height="400%"><feGaussianBlur id="e4lCxYLurU62-filter-drop-shadow-0-blur" in="SourceAlpha" stdDeviation="5,10"/><feOffset id="e4lCxYLurU62-filter-drop-shadow-0-offset" dx="-5" dy="5" result="tmp"/><feFlood id="e4lCxYLurU62-filter-drop-shadow-0-flood" flood-color="#000"/><feComposite id="e4lCxYLurU62-filter-drop-shadow-0-composite" operator="in" in2="tmp"/><feMerge id="e4lCxYLurU62-filter-drop-shadow-0-merge" result="result"><feMergeNode id="e4lCxYLurU62-filter-drop-shadow-0-merge-node-1"/><feMergeNode id="e4lCxYLurU62-filter-drop-shadow-0-merge-node-2" in="SourceGraphic"/></feMerge></filter></defs><path d="M75.52617,207.428663c0-54.493057,33.734099-101.107169,81.458473-120.09864v32.250398c-30.695383,17.037353-51.497383,49.9906-51.497383,87.848242c0,55.330504,44.435249,100.184727,99.24891,100.184727s99.24891-44.854223,99.24891-100.184727c0-37.857642-20.802018-70.810889-51.497383-87.848242v-32.250398c47.724374,18.99147,81.458473,65.605582,81.458473,120.09864c0,71.360124-57.849288,129.208937-129.21,129.208937s-129.21-57.848812-129.21-129.208937Zm115.330225,11.188742v-161.979805h27.75955v161.979805h-27.75955Z" transform="translate(-54.73617-46.6376)" filter="url(#e4lCxYLurU62-filter)" fill="#d2dbed" stroke-width="0"/></svg>
