<svg id="eWyA4gn3maB1" xmlns="http://www.w3.org/2000/svg" xmlns:xlink="http://www.w3.org/1999/xlink" viewBox="0 0 250 250" shape-rendering="geometricPrecision" text-rendering="geometricPrecision" project-id="eca90d06d7e5413ba9fd0a5aedcedc44" export-id="37411d67d37643abb227ca8362908aaa" cached="false"><path d="M98.95337,137.48865L98.95337,0h38.82201v227.14882h-.13581l-38.6862-67.00646v-22.65371Z" transform="matrix(-1 0 0 1.033565 236.882897 8.328522)" fill="#9ca5b6" stroke-width="0"/><path d="M98.95337,137.48865L98.95337,0h38.82201v227.14882h-.13581l-38.6862-67.00646v-22.65371Z" transform="matrix(0-1 0.441674 0 5.494752 146.103902)" fill="#9da4b6" stroke-width="0"/><path d="M112.222898,34.366422c0,0,40.709811,0,80.187271,0c70.541667,0,76.467375.000002,76.467374,22.892189q-.000002,22.892187-156.654645,211.284381c0,0,0-234.17657,0-234.17657Z" transform="matrix(.677551 0 0 0.700399 49.251671-3.623678)" fill="none" stroke="#3f5787" stroke-width="50"/><path d="M98.95337,137.48865L98.95337,0h38.82201v227.14882h-.13581l-38.6862-67.00646v-22.65371Z" transform="matrix(0-1 0.441674 0 11.128526 153.728152)" fill="#d2dbed" stroke-width="0"/><path d="M98.95337,137.48865L98.95337,0h38.82201v227.14882h-.13581l-38.6862-67.00646v-22.65371Z" transform="matrix(0-1 0.205656 0 51.539601 231.684976)" fill="#9ca4b7" stroke-width="0"/><path d="M98.95337,137.48865L98.95337,0h38.82201v227.14882h-.13581l-38.6862-67.00646v-22.65371Z" transform="matrix(-1 0 0 1 229.818629 15.952772)" fill="#d2dbed" stroke-width="0"/><path d="M98.95337,137.48865L98.95337,0h38.82201v227.14882h-.13581l-38.6862-67.00646v-22.65371Z" transform="matrix(0-1 0.21317 0 50.686203 240.230427)" fill="#d2dbed" stroke-width="0"/></svg>
