<svg id="eIQFq0fra3S1" xmlns="http://www.w3.org/2000/svg" xmlns:xlink="http://www.w3.org/1999/xlink" viewBox="0 0 1065 1080" shape-rendering="geometricPrecision" text-rendering="geometricPrecision" project-id="9ea9eb96a8f245fbaa3747a4632a6e9f" export-id="7dbc857c5dec4958bf960c8d63668811" cached="true"><defs><linearGradient id="eIQFq0fra3S2-fill" x1="0.10599" y1="0.839606" x2="0.669279" y2="0.312595" spreadMethod="pad" gradientUnits="objectBoundingBox" gradientTransform="translate(0 0)"><stop id="eIQFq0fra3S2-fill-0" offset="0%" stop-color="#0749cd"/><stop id="eIQFq0fra3S2-fill-1" offset="100%" stop-color="#202020"/></linearGradient><filter id="eIQFq0fra3S3-filter" x="-150%" y="-150%" width="400%" height="400%"><feGaussianBlur id="eIQFq0fra3S3-filter-drop-shadow-0-blur" in="SourceAlpha" stdDeviation="10,10"/><feOffset id="eIQFq0fra3S3-filter-drop-shadow-0-offset" dx="-10" dy="10" result="tmp"/><feFlood id="eIQFq0fra3S3-filter-drop-shadow-0-flood" flood-color="#000"/><feComposite id="eIQFq0fra3S3-filter-drop-shadow-0-composite" operator="in" in2="tmp"/><feMerge id="eIQFq0fra3S3-filter-drop-shadow-0-merge" result="result"><feMergeNode id="eIQFq0fra3S3-filter-drop-shadow-0-merge-node-1"/><feMergeNode id="eIQFq0fra3S3-filter-drop-shadow-0-merge-node-2" in="SourceGraphic"/></feMerge></filter><filter id="eIQFq0fra3S4-filter" x="-150%" y="-150%" width="400%" height="400%"><feGaussianBlur id="eIQFq0fra3S4-filter-drop-shadow-0-blur" in="SourceAlpha" stdDeviation="10,10"/><feOffset id="eIQFq0fra3S4-filter-drop-shadow-0-offset" dx="-10" dy="10" result="tmp"/><feFlood id="eIQFq0fra3S4-filter-drop-shadow-0-flood" flood-color="#000"/><feComposite id="eIQFq0fra3S4-filter-drop-shadow-0-composite" operator="in" in2="tmp"/><feMerge id="eIQFq0fra3S4-filter-drop-shadow-0-merge" result="result"><feMergeNode id="eIQFq0fra3S4-filter-drop-shadow-0-merge-node-1"/><feMergeNode id="eIQFq0fra3S4-filter-drop-shadow-0-merge-node-2" in="SourceGraphic"/></feMerge></filter><filter id="eIQFq0fra3S5-filter" x="-150%" y="-150%" width="400%" height="400%"><feGaussianBlur id="eIQFq0fra3S5-filter-drop-shadow-0-blur" in="SourceAlpha" stdDeviation="10,10"/><feOffset id="eIQFq0fra3S5-filter-drop-shadow-0-offset" dx="-10" dy="10" result="tmp"/><feFlood id="eIQFq0fra3S5-filter-drop-shadow-0-flood" flood-color="#000"/><feComposite id="eIQFq0fra3S5-filter-drop-shadow-0-composite" operator="in" in2="tmp"/><feMerge id="eIQFq0fra3S5-filter-drop-shadow-0-merge" result="result"><feMergeNode id="eIQFq0fra3S5-filter-drop-shadow-0-merge-node-1"/><feMergeNode id="eIQFq0fra3S5-filter-drop-shadow-0-merge-node-2" in="SourceGraphic"/></feMerge></filter><filter id="eIQFq0fra3S6-filter" x="-150%" y="-150%" width="400%" height="400%"><feGaussianBlur id="eIQFq0fra3S6-filter-drop-shadow-0-blur" in="SourceAlpha" stdDeviation="10,10"/><feOffset id="eIQFq0fra3S6-filter-drop-shadow-0-offset" dx="-10" dy="10" result="tmp"/><feFlood id="eIQFq0fra3S6-filter-drop-shadow-0-flood" flood-color="#000"/><feComposite id="eIQFq0fra3S6-filter-drop-shadow-0-composite" operator="in" in2="tmp"/><feMerge id="eIQFq0fra3S6-filter-drop-shadow-0-merge" result="result"><feMergeNode id="eIQFq0fra3S6-filter-drop-shadow-0-merge-node-1"/><feMergeNode id="eIQFq0fra3S6-filter-drop-shadow-0-merge-node-2" in="SourceGraphic"/></feMerge></filter><filter id="eIQFq0fra3S7-filter" x="-150%" y="-150%" width="400%" height="400%"><feGaussianBlur id="eIQFq0fra3S7-filter-drop-shadow-0-blur" in="SourceAlpha" stdDeviation="10,10"/><feOffset id="eIQFq0fra3S7-filter-drop-shadow-0-offset" dx="-10" dy="10" result="tmp"/><feFlood id="eIQFq0fra3S7-filter-drop-shadow-0-flood" flood-color="#000"/><feComposite id="eIQFq0fra3S7-filter-drop-shadow-0-composite" operator="in" in2="tmp"/><feMerge id="eIQFq0fra3S7-filter-drop-shadow-0-merge" result="result"><feMergeNode id="eIQFq0fra3S7-filter-drop-shadow-0-merge-node-1"/><feMergeNode id="eIQFq0fra3S7-filter-drop-shadow-0-merge-node-2" in="SourceGraphic"/></feMerge></filter><filter id="eIQFq0fra3S8-filter" x="-150%" y="-150%" width="400%" height="400%"><feGaussianBlur id="eIQFq0fra3S8-filter-drop-shadow-0-blur" in="SourceAlpha" stdDeviation="10,10"/><feOffset id="eIQFq0fra3S8-filter-drop-shadow-0-offset" dx="-10" dy="10" result="tmp"/><feFlood id="eIQFq0fra3S8-filter-drop-shadow-0-flood" flood-color="#000"/><feComposite id="eIQFq0fra3S8-filter-drop-shadow-0-composite" operator="in" in2="tmp"/><feMerge id="eIQFq0fra3S8-filter-drop-shadow-0-merge" result="result"><feMergeNode id="eIQFq0fra3S8-filter-drop-shadow-0-merge-node-1"/><feMergeNode id="eIQFq0fra3S8-filter-drop-shadow-0-merge-node-2" in="SourceGraphic"/></feMerge></filter></defs><rect width="2178.70262" height="1080" rx="0" ry="0" transform="matrix(.489741 0 0 1-2 0)" fill="url(#eIQFq0fra3S2-fill)" stroke-width="0"/><path d="M0,344.77185C0,154.35962,154.35962,0,344.77185,0h960v689.5437h-960C154.35962,689.5437,0,535.18408,0,344.77185Z" transform="matrix(1.449368 0 0 1.615827 402.811235-562.580977)" filter="url(#eIQFq0fra3S3-filter)" fill="#0d46b8" stroke-width="0"/><path d="M0,364.627525C0,163.249309,163.24897,0,364.626768,0h1015.285028v729.25505h-1015.285028C163.24897,729.25505,0,566.005742,0,364.627525Z" transform="matrix(1.449368 0 0 1.615827 402.811235-562.580977)" filter="url(#eIQFq0fra3S4-filter)" fill="#0d46b8" stroke-width="0"/><path d="M0,328.163225C0,146.923685,146.924073,0,328.164091,0h913.756525v656.326451h-913.756525C146.924073,656.326451,0,509.402766,0,328.163225Z" transform="matrix(1.449368 0 0 1.615827 493.905802-508.907649)" filter="url(#eIQFq0fra3S5-filter)" fill="#0d46b8" stroke-width="0"/><path d="M0,291.70202C0,130.599447,130.599176,0,291.701414,0h812.228023v583.40404h-812.228023C130.599176,583.40404,0,452.804593,0,291.70202Z" transform="matrix(1.449368 0 0 1.615827 593.905802-476.829313)" filter="url(#eIQFq0fra3S6-filter)" fill="#0d46b8" stroke-width="0"/><path d="M0,291.70202C0,130.599447,130.599176,0,291.701414,0h812.228023v583.40404h-812.228023C130.599176,583.40404,0,452.804593,0,291.70202Z" transform="matrix(1.223624 0 0 1.419752 709.670385-419.633839)" filter="url(#eIQFq0fra3S7-filter)" fill="#0d46b8" stroke-width="0"/><path d="M0,291.70202C0,130.599447,130.599176,0,291.701414,0h812.228023v583.40404h-812.228023C130.599176,583.40404,0,452.804593,0,291.70202Z" transform="matrix(1.050315 0 0 1.163825 798.54559-344.979416)" filter="url(#eIQFq0fra3S8-filter)" fill="#0d46b8" stroke-width="0"/></svg>
