<svg xmlns="http://www.w3.org/2000/svg" viewBox="0 0 1065 1080" shape-rendering="geometricPrecision" text-rendering="geometricPrecision"><defs><filter id="b" x="-150%" y="-150%" width="400%" height="400%"><feGaussianBlur in="SourceAlpha" stdDeviation="10,10"/><feOffset dx="-10" dy="10" result="tmp"/><feFlood flood-color="#000"/><feComposite operator="in" in2="tmp"/><feMerge result="result"><feMergeNode/><feMergeNode in="SourceGraphic"/></feMerge></filter><filter id="c" x="-150%" y="-150%" width="400%" height="400%"><feGaussianBlur in="SourceAlpha" stdDeviation="10,10"/><feOffset dx="-10" dy="10" result="tmp"/><feFlood flood-color="#000"/><feComposite operator="in" in2="tmp"/><feMerge result="result"><feMergeNode/><feMergeNode in="SourceGraphic"/></feMerge></filter><filter id="d" x="-150%" y="-150%" width="400%" height="400%"><feGaussianBlur in="SourceAlpha" stdDeviation="10,10"/><feOffset dx="-10" dy="10" result="tmp"/><feFlood flood-color="#000"/><feComposite operator="in" in2="tmp"/><feMerge result="result"><feMergeNode/><feMergeNode in="SourceGraphic"/></feMerge></filter><filter id="e" x="-150%" y="-150%" width="400%" height="400%"><feGaussianBlur in="SourceAlpha" stdDeviation="10,10"/><feOffset dx="-10" dy="10" result="tmp"/><feFlood flood-color="#000"/><feComposite operator="in" in2="tmp"/><feMerge result="result"><feMergeNode/><feMergeNode in="SourceGraphic"/></feMerge></filter><filter id="f" x="-150%" y="-150%" width="400%" height="400%"><feGaussianBlur in="SourceAlpha" stdDeviation="10,10"/><feOffset dx="-10" dy="10" result="tmp"/><feFlood flood-color="#000"/><feComposite operator="in" in2="tmp"/><feMerge result="result"><feMergeNode/><feMergeNode in="SourceGraphic"/></feMerge></filter><filter id="g" x="-150%" y="-150%" width="400%" height="400%"><feGaussianBlur in="SourceAlpha" stdDeviation="10,10"/><feOffset dx="-10" dy="10" result="tmp"/><feFlood flood-color="#000"/><feComposite operator="in" in2="tmp"/><feMerge result="result"><feMergeNode/><feMergeNode in="SourceGraphic"/></feMerge></filter><linearGradient id="a" x1=".106" y1=".84" x2=".669" y2=".313" spreadMethod="pad" gradientUnits="objectBoundingBox"><stop offset="0%" stop-color="#0749cd"/><stop offset="100%" stop-color="#202020"/></linearGradient></defs><rect width="2178.703" height="1080" rx="0" ry="0" transform="matrix(.48974 0 0 1 -2 0)" fill="url(#a)"/><path d="M0 344.772C0 154.36 154.36 0 344.772 0h960v689.544h-960C154.36 689.544 0 535.184 0 344.772z" transform="matrix(1.44937 0 0 1.61583 402.811 -562.581)" filter="url(#b)" fill="#0d46b8"/><path d="M0 364.628C0 163.249 163.249 0 364.627 0h1015.285v729.255H364.627C163.249 729.255 0 566.005 0 364.628z" transform="matrix(1.44937 0 0 1.61583 402.811 -562.581)" filter="url(#c)" fill="#0d46b8"/><path d="M0 328.163C0 146.923 146.924 0 328.164 0h913.757v656.326H328.164C146.924 656.326 0 509.403 0 328.163z" transform="matrix(1.44937 0 0 1.61583 493.906 -508.908)" filter="url(#d)" fill="#0d46b8"/><path d="M0 291.702C0 130.599 130.6 0 291.701 0h812.228v583.404H291.701C130.6 583.404 0 452.804 0 291.702z" transform="matrix(1.44937 0 0 1.61583 593.906 -476.83)" filter="url(#e)" fill="#0d46b8"/><path d="M0 291.702C0 130.599 130.6 0 291.701 0h812.228v583.404H291.701C130.6 583.404 0 452.804 0 291.702z" transform="matrix(1.22362 0 0 1.41975 709.67 -419.634)" filter="url(#f)" fill="#0d46b8"/><path d="M0 291.702C0 130.599 130.6 0 291.701 0h812.228v583.404H291.701C130.6 583.404 0 452.804 0 291.702z" transform="matrix(1.05032 0 0 1.16383 798.546 -344.98)" filter="url(#g)" fill="#0d46b8"/></svg>