<svg id="eEnGf0NRAkI1" xmlns="http://www.w3.org/2000/svg" xmlns:xlink="http://www.w3.org/1999/xlink" viewBox="0 0 1920 3500" shape-rendering="geometricPrecision" text-rendering="geometricPrecision" project-id="c841b60c81814c54a0bbbf3ce40ad597" export-id="69da1a2373ed429aa853115b685c3817" cached="false"><defs><linearGradient id="eEnGf0NRAkI2-fill" x1="0.10599" y1="0.839606" x2="0.669279" y2="0.312595" spreadMethod="pad" gradientUnits="objectBoundingBox" gradientTransform="translate(0 0)"><stop id="eEnGf0NRAkI2-fill-0" offset="0%" stop-color="#0749cd"/><stop id="eEnGf0NRAkI2-fill-1" offset="100%" stop-color="#202020"/></linearGradient><filter id="eEnGf0NRAkI3-filter" x="-150%" y="-150%" width="400%" height="400%"><feGaussianBlur id="eEnGf0NRAkI3-filter-drop-shadow-0-blur" in="SourceAlpha" stdDeviation="10,10"/><feOffset id="eEnGf0NRAkI3-filter-drop-shadow-0-offset" dx="-10" dy="10" result="tmp"/><feFlood id="eEnGf0NRAkI3-filter-drop-shadow-0-flood" flood-color="#000"/><feComposite id="eEnGf0NRAkI3-filter-drop-shadow-0-composite" operator="in" in2="tmp"/><feMerge id="eEnGf0NRAkI3-filter-drop-shadow-0-merge" result="result"><feMergeNode id="eEnGf0NRAkI3-filter-drop-shadow-0-merge-node-1"/><feMergeNode id="eEnGf0NRAkI3-filter-drop-shadow-0-merge-node-2" in="SourceGraphic"/></feMerge></filter><filter id="eEnGf0NRAkI4-filter" x="-150%" y="-150%" width="400%" height="400%"><feGaussianBlur id="eEnGf0NRAkI4-filter-drop-shadow-0-blur" in="SourceAlpha" stdDeviation="10,10"/><feOffset id="eEnGf0NRAkI4-filter-drop-shadow-0-offset" dx="-10" dy="10" result="tmp"/><feFlood id="eEnGf0NRAkI4-filter-drop-shadow-0-flood" flood-color="#000"/><feComposite id="eEnGf0NRAkI4-filter-drop-shadow-0-composite" operator="in" in2="tmp"/><feMerge id="eEnGf0NRAkI4-filter-drop-shadow-0-merge" result="result"><feMergeNode id="eEnGf0NRAkI4-filter-drop-shadow-0-merge-node-1"/><feMergeNode id="eEnGf0NRAkI4-filter-drop-shadow-0-merge-node-2" in="SourceGraphic"/></feMerge></filter><filter id="eEnGf0NRAkI5-filter" x="-150%" y="-150%" width="400%" height="400%"><feGaussianBlur id="eEnGf0NRAkI5-filter-drop-shadow-0-blur" in="SourceAlpha" stdDeviation="10,10"/><feOffset id="eEnGf0NRAkI5-filter-drop-shadow-0-offset" dx="-10" dy="10" result="tmp"/><feFlood id="eEnGf0NRAkI5-filter-drop-shadow-0-flood" flood-color="#000"/><feComposite id="eEnGf0NRAkI5-filter-drop-shadow-0-composite" operator="in" in2="tmp"/><feMerge id="eEnGf0NRAkI5-filter-drop-shadow-0-merge" result="result"><feMergeNode id="eEnGf0NRAkI5-filter-drop-shadow-0-merge-node-1"/><feMergeNode id="eEnGf0NRAkI5-filter-drop-shadow-0-merge-node-2" in="SourceGraphic"/></feMerge></filter><filter id="eEnGf0NRAkI6-filter" x="-150%" y="-150%" width="400%" height="400%"><feGaussianBlur id="eEnGf0NRAkI6-filter-drop-shadow-0-blur" in="SourceAlpha" stdDeviation="10,10"/><feOffset id="eEnGf0NRAkI6-filter-drop-shadow-0-offset" dx="-10" dy="10" result="tmp"/><feFlood id="eEnGf0NRAkI6-filter-drop-shadow-0-flood" flood-color="#000"/><feComposite id="eEnGf0NRAkI6-filter-drop-shadow-0-composite" operator="in" in2="tmp"/><feMerge id="eEnGf0NRAkI6-filter-drop-shadow-0-merge" result="result"><feMergeNode id="eEnGf0NRAkI6-filter-drop-shadow-0-merge-node-1"/><feMergeNode id="eEnGf0NRAkI6-filter-drop-shadow-0-merge-node-2" in="SourceGraphic"/></feMerge></filter><filter id="eEnGf0NRAkI7-filter" x="-150%" y="-150%" width="400%" height="400%"><feGaussianBlur id="eEnGf0NRAkI7-filter-drop-shadow-0-blur" in="SourceAlpha" stdDeviation="10,10"/><feOffset id="eEnGf0NRAkI7-filter-drop-shadow-0-offset" dx="-10" dy="10" result="tmp"/><feFlood id="eEnGf0NRAkI7-filter-drop-shadow-0-flood" flood-color="#000"/><feComposite id="eEnGf0NRAkI7-filter-drop-shadow-0-composite" operator="in" in2="tmp"/><feMerge id="eEnGf0NRAkI7-filter-drop-shadow-0-merge" result="result"><feMergeNode id="eEnGf0NRAkI7-filter-drop-shadow-0-merge-node-1"/><feMergeNode id="eEnGf0NRAkI7-filter-drop-shadow-0-merge-node-2" in="SourceGraphic"/></feMerge></filter><filter id="eEnGf0NRAkI8-filter" x="-150%" y="-150%" width="400%" height="400%"><feGaussianBlur id="eEnGf0NRAkI8-filter-drop-shadow-0-blur" in="SourceAlpha" stdDeviation="10,10"/><feOffset id="eEnGf0NRAkI8-filter-drop-shadow-0-offset" dx="-10" dy="10" result="tmp"/><feFlood id="eEnGf0NRAkI8-filter-drop-shadow-0-flood" flood-color="#000"/><feComposite id="eEnGf0NRAkI8-filter-drop-shadow-0-composite" operator="in" in2="tmp"/><feMerge id="eEnGf0NRAkI8-filter-drop-shadow-0-merge" result="result"><feMergeNode id="eEnGf0NRAkI8-filter-drop-shadow-0-merge-node-1"/><feMergeNode id="eEnGf0NRAkI8-filter-drop-shadow-0-merge-node-2" in="SourceGraphic"/></feMerge></filter></defs><rect width="1920.45965" height="3500" rx="0" ry="0" transform="matrix(1.011245 0 0 1-22.055237 0)" fill="url(#eEnGf0NRAkI2-fill)" stroke-width="0"/><path d="M0,344.77185C0,154.35962,154.35962,0,344.77185,0h960v689.5437h-960C154.35962,689.5437,0,535.18408,0,344.77185Z" transform="matrix(1.449368 0 0 1.615827 985.649874-557.091664)" filter="url(#eEnGf0NRAkI3-filter)" fill="#0d46b8" stroke-width="0"/><path d="M0,364.627525C0,163.249309,163.24897,0,364.626768,0h1015.285028v729.25505h-1015.285028C163.24897,729.25505,0,566.005742,0,364.627525Z" transform="matrix(1.449368 0 0 1.615827 985.649874-557.091664)" filter="url(#eEnGf0NRAkI4-filter)" fill="#0d46b8" stroke-width="0"/><path d="M0,328.163225C0,146.923685,146.924073,0,328.164091,0h913.756525v656.326451h-913.756525C146.924073,656.326451,0,509.402766,0,328.163225Z" transform="matrix(1.449368 0 0 1.615827 1076.744441-503.418336)" filter="url(#eEnGf0NRAkI5-filter)" fill="#0d46b8" stroke-width="0"/><path d="M0,291.70202C0,130.599447,130.599176,0,291.701414,0h812.228023v583.40404h-812.228023C130.599176,583.40404,0,452.804593,0,291.70202Z" transform="matrix(1.449368 0 0 1.615827 1176.744441-471.34)" filter="url(#eEnGf0NRAkI6-filter)" fill="#0d46b8" stroke-width="0"/><path d="M0,291.70202C0,130.599447,130.599176,0,291.701414,0h812.228023v583.40404h-812.228023C130.599176,583.40404,0,452.804593,0,291.70202Z" transform="matrix(1.223624 0 0 1.419752 1292.509024-414.144526)" filter="url(#eEnGf0NRAkI7-filter)" fill="#0d46b8" stroke-width="0"/><path d="M0,291.70202C0,130.599447,130.599176,0,291.701414,0h812.228023v583.40404h-812.228023C130.599176,583.40404,0,452.804593,0,291.70202Z" transform="matrix(1.050315 0 0 1.163825 1381.384229-339.490103)" filter="url(#eEnGf0NRAkI8-filter)" fill="#0d46b8" stroke-width="0"/></svg>
