<svg xmlns="http://www.w3.org/2000/svg" viewBox="0 0 300 186.31" shape-rendering="geometricPrecision" text-rendering="geometricPrecision"><defs><filter id="a" x="-150%" y="-150%" width="400%" height="400%"><feGaussianBlur in="SourceAlpha" stdDeviation="5,5"/><feOffset dx="5" dy="5" result="tmp"/><feComposite operator="arithmetic" k2="-1" k3="1" in2="SourceGraphic"/><feColorMatrix values="0 0 0 0 0 0 0 0 0 0 0 0 0 0 0 0 0 0 1 0"/><feMerge result="result"><feMergeNode in="SourceGraphic"/><feMergeNode/></feMerge></filter></defs><path d="M24.627 186.311C11.026 186.311 0 175.693 0 162.594V23.717C0 10.62 11.026 0 24.627 0h250.746C288.974 0 300 10.619 300 23.717v138.877c0 13.099-11.026 23.717-24.627 23.717H24.627zM176.645 66.234c0-14.868-11.93-26.92-26.645-26.92s-26.645 12.052-26.645 26.92a26.967 26.967 0 0 0 12.312 22.699l-12.312 35.743h53.29l-12.312-35.743a26.967 26.967 0 0 0 12.312-22.699z" fill="#6c6c6c"/><path d="M176.645 66.234c0-14.868-11.93-26.92-26.645-26.92s-26.645 12.052-26.645 26.92a26.967 26.967 0 0 0 12.312 22.699l-12.312 35.743h53.29l-12.312-35.743a26.967 26.967 0 0 0 12.312-22.699z" filter="url(#a)" fill="#4a4a4a"/></svg>