<svg id="en0sOL6poeh1" xmlns="http://www.w3.org/2000/svg" xmlns:xlink="http://www.w3.org/1999/xlink" viewBox="0 0 300 186.31" shape-rendering="geometricPrecision" text-rendering="geometricPrecision" project-id="31f4460df8024b0380d244dbeb54eaac" export-id="2500cb7b7faf483cbc8446ff2daeefc6" cached="false"><defs><filter id="en0sOL6poeh3-filter" x="-150%" y="-150%" width="400%" height="400%"><feGaussianBlur id="en0sOL6poeh3-filter-inner-shadow-0-blur" in="SourceAlpha" stdDeviation="5,5"/><feOffset id="en0sOL6poeh3-filter-inner-shadow-0-offset" dx="5" dy="5" result="tmp"/><feComposite id="en0sOL6poeh3-filter-inner-shadow-0-composite" operator="arithmetic" k2="-1" k3="1" in2="SourceGraphic"/><feColorMatrix id="en0sOL6poeh3-filter-inner-shadow-0-color-matrix" type="matrix" values="0 0 0 0 0 0 0 0 0 0 0 0 0 0 0 0 0 0 1 0"/><feMerge id="en0sOL6poeh3-filter-inner-shadow-0-merge" result="result"><feMergeNode id="en0sOL6poeh3-filter-inner-shadow-0-merge-node-1" in="SourceGraphic"/><feMergeNode id="en0sOL6poeh3-filter-inner-shadow-0-merge-node-2"/></feMerge></filter><linearGradient id="en0sOL6poeh4-fill" x1="0" y1="0.5" x2="0.5" y2="0.500003" spreadMethod="pad" gradientUnits="objectBoundingBox" gradientTransform="translate(0 0)"><stop id="en0sOL6poeh4-fill-0" offset="0%" stop-color="#383838"/><stop id="en0sOL6poeh4-fill-1" offset="100%" stop-color="#6c6c6c"/></linearGradient><linearGradient id="en0sOL6poeh5-fill" x1="0" y1="0.5" x2="0.5" y2="0.500003" spreadMethod="pad" gradientUnits="objectBoundingBox" gradientTransform="translate(0 0)"><stop id="en0sOL6poeh5-fill-0" offset="0%" stop-color="#383838"/><stop id="en0sOL6poeh5-fill-1" offset="100%" stop-color="#6c6c6c"/></linearGradient></defs><path d="M67.57162,221.0783c-8.832708,0-15.99304-6.89581-15.99304-15.40222v-90.18752c0-8.50641,7.160322-15.40222,15.99304-15.40222h162.836318c8.832709,0,15.993041,6.89581,15.993041,15.40222v90.18752c0,8.50641-7.160322,15.40222-15.993041,15.40222h-162.836318Zm98.721516-77.97879c0-9.65549-7.746978-17.48281-17.303362-17.48281s-17.303361,7.82732-17.303361,17.48281c0,6.19354,3.187582,11.63485,7.99562,14.74058l-7.99565,23.21172h34.606783l-7.99565-23.21172c4.808037-3.10572,7.99561-8.54704,7.99561-14.74057l.00001-.00001Z" transform="matrix(1.539864 0 0 1.539864-79.423997-154.119352)" fill="#6c6c6c"/><path d="M176.64482,66.23443c0-14.86814-11.92929-26.92115-26.64482-26.92115s-26.64482,12.05301-26.64482,26.92115c0,9.53721,4.90844,17.91609,12.31217,22.69849l-12.31221,35.74289h53.28974L164.33267,88.93292c7.40372-4.78239,12.31215-13.16128,12.31215-22.69847v-.00002Z" filter="url(#en0sOL6poeh3-filter)" fill="#4a4a4a" stroke-width="0"/><rect width="130.692767" height="186.31" rx="24" ry="24" transform="matrix(.758226 0 0 1 0.000002 0)" fill="url(#en0sOL6poeh4-fill)" stroke-width="0"/><rect width="130.692767" height="186.31" rx="24" ry="24" transform="matrix(-.758219 0.003221-.004248-.999991 300 186.30832)" fill="url(#en0sOL6poeh5-fill)" stroke-width="0"/></svg>
