<svg xmlns="http://www.w3.org/2000/svg" viewBox="0 0 300 300" shape-rendering="geometricPrecision" text-rendering="geometricPrecision"><defs><filter id="a" x="-150%" y="-150%" width="400%" height="400%"><feGaussianBlur in="SourceAlpha" stdDeviation="5,5"/><feOffset dx="5" dy="5" result="tmp"/><feComposite operator="arithmetic" k2="-1" k3="1" in2="SourceGraphic"/><feColorMatrix values="0 0 0 0 0 0 0 0 0 0 0 0 0 0 0 0 0 0 1 0"/><feMerge result="result"><feMergeNode in="SourceGraphic"/><feMergeNode/></feMerge></filter></defs><path d="M61.582 250.416c-5.269-5.269-4.036-15.045 2.755-21.836l69.44-69.44-69.44-69.44c-6.79-6.79-8.024-16.566-2.755-21.835l8.518-8.518c5.27-5.269 15.045-4.036 21.836 2.755l69.44 69.44 69.44-69.44c6.79-6.79 16.566-8.024 21.835-2.755l8.518 8.518c5.27 5.27 4.036 15.046-2.754 21.836l-69.44 69.44 69.44 69.44c6.79 6.79 8.023 16.566 2.754 21.835l-8.518 8.518c-5.269 5.27-15.045 4.036-21.836-2.754l-69.44-69.44-69.44 69.44c-6.79 6.79-16.566 8.023-21.835 2.754l-8.518-8.518z" transform="matrix(1.4312 0 0 1.43619 -80.961 -78.556)" filter="url(#a)" fill="#979ca5"/></svg>