<svg id="eV0hkgMl7Cn1" xmlns="http://www.w3.org/2000/svg" xmlns:xlink="http://www.w3.org/1999/xlink" viewBox="0 0 300 300" shape-rendering="geometricPrecision" text-rendering="geometricPrecision" project-id="bdfd79cacb9a4c6a884a9af183942a30" export-id="99f277a8c64b421a851c91be51414113" cached="false"><defs><filter id="eV0hkgMl7Cn2-filter" x="-150%" y="-150%" width="400%" height="400%"><feGaussianBlur id="eV0hkgMl7Cn2-filter-inner-shadow-0-blur" in="SourceAlpha" stdDeviation="5,5"/><feOffset id="eV0hkgMl7Cn2-filter-inner-shadow-0-offset" dx="5" dy="5" result="tmp"/><feComposite id="eV0hkgMl7Cn2-filter-inner-shadow-0-composite" operator="arithmetic" k2="-1" k3="1" in2="SourceGraphic"/><feColorMatrix id="eV0hkgMl7Cn2-filter-inner-shadow-0-color-matrix" type="matrix" values="0 0 0 0 0 0 0 0 0 0 0 0 0 0 0 0 0 0 1 0"/><feMerge id="eV0hkgMl7Cn2-filter-inner-shadow-0-merge" result="result"><feMergeNode id="eV0hkgMl7Cn2-filter-inner-shadow-0-merge-node-1" in="SourceGraphic"/><feMergeNode id="eV0hkgMl7Cn2-filter-inner-shadow-0-merge-node-2"/></feMerge></filter></defs><path d="M61.58223,250.41632c-5.26924-5.26924-4.03607-15.04552,2.75434-21.83593l69.43973-69.43973L64.33657,89.70093c-6.79042-6.79042-8.02358-16.5667-2.75434-21.83593l8.5177-8.5177c5.26924-5.26924,15.04552-4.03607,21.83593,2.75434l69.43973,69.43973l69.43973-69.43973c6.79042-6.79042,16.5667-8.02358,21.83593-2.75434l8.5177,8.5177c5.26924,5.26924,4.03607,15.04552-2.75434,21.83593l-69.43973,69.43973l69.43973,69.43973c6.79042,6.79042,8.02358,16.5667,2.75434,21.83593l-8.5177,8.5177c-5.26924,5.26924-15.04552,4.03607-21.83593-2.75434l-69.43973-69.43973-69.43973,69.43973c-6.79042,6.79042-16.5667,8.02358-21.83593,2.75434l-8.5177-8.5177Z" transform="matrix(1.431202 0 0 1.436188-80.961066-78.555908)" filter="url(#eV0hkgMl7Cn2-filter)" fill="#979ca5"/></svg>
